<?xml version="1.0" encoding="utf-8"?>
<!-- Generator: Adobe Illustrator 25.2.3, SVG Export Plug-In . SVG Version: 6.00 Build 0)  -->
<svg version="1.1" id="Calque_1" xmlns="http://www.w3.org/2000/svg" xmlns:xlink="http://www.w3.org/1999/xlink" x="0px" y="0px"
	 viewBox="0 0 628.39 649.6" style="enable-background:new 0 0 628.39 649.6;" xml:space="preserve">
<style type="text/css">
	.st0{fill:#1CA0DB;}
	.st1{fill:#1EA0DB;}
</style>
<g>
	<path class="st0" d="M301.56,369.76c0.01,16.19-4.77,31.51-8.76,46.94c-4.1,15.86-8.8,31.57-13.14,47.37
		c-0.6,2.2-1.69,4.44-1.01,6.81c0.4,1.4,0.84,3.02,2.51,3.46c1.54,0.4,2.3-0.84,3.24-1.82c6.69-7.07,10.72-15.81,14.94-24.35
		c9.18-18.59,15.54-38.25,21.35-58.1c3.43-11.72,4.56-23.86,6.59-35.82c0.46-2.73,1.87-4.9,2.64-7.4c0.3-0.99,1.04-2.14,2.54-1.97
		c1.47,0.16,1.81,1.3,2.08,2.44c0.93,3.83,2.33,7.63,2.64,11.51c1.33,17.04-1.67,33.5-7.28,49.57c-1.19,3.41-2.01,6.94-3,10.41
		c-0.42,1.46-1,3.15,0.39,4.17c1.55,1.14,3.46,0.92,5.15-0.07c3.73-2.2,6.01-5.73,7.97-9.36c6.62-12.26,10.59-25.47,12.87-39.14
		c3.79-22.76-1.8-44.05-10.53-64.87c-9.44-22.51-22.56-42.92-35.37-63.54c-5.52-8.88-10.56-18.06-15.82-27.1
		c-1.1-1.9-1.35-3.21,0.78-5.01c21.68-18.36,41.13-39.01,60.08-60.1c10.65-11.86,20.67-24.3,30.88-36.56
		c18.4-22.09,35.97-44.84,52.95-68.04c4.89-6.68,8.42-14.38,15.98-18.83c5.02-2.96,10.08-5.41,16.12-5.1
		c5.1,0.26,7.54,2.55,7.74,7.6c0.29,7.5-1.39,14.73-3.01,21.98c-4.61,20.59-12.18,40.11-22.05,58.67
		c-10.42,19.61-22.96,37.9-36.19,55.74c-12.52,16.9-25.55,33.45-36.29,51.62c-6.5,10.99-11.41,22.56-14.11,35.04
		c-0.75,3.47-0.06,7.09,1.57,10.07c1.86,3.39,4.95,5.23,9.22,3.67c5.34-1.95,9.87-5.11,14.15-8.75
		c31.34-26.67,58.42-57.11,80.08-92.12c9.55-15.44,17.88-31.62,25.53-48.14c8.2-17.71,15.25-35.89,22.55-53.97
		c4.23-10.48,7.4-21.37,12.35-31.58c2.56-5.27,6.39-9.34,11.07-12.73c2.33,0,4.66,0,6.99,0c9.78,6.46,12.37,16.23,13.04,27.18
		c0.83,13.44-2.06,26.37-5.67,39c-4.4,15.4-8.25,30.96-14.94,45.77c-3.87,8.55-6.9,17.67-10.77,26.32
		c-11.17,24.93-24.71,48.61-39.53,71.51c-12.02,18.57-24.81,36.64-36.95,55.13c-6.3,9.6-12.29,19.44-14.87,30.91
		c-1.35,5.98,1.01,9.18,7.11,8.6c5.29-0.5,10.09-2.13,14.15-6.1c9.96-9.77,16.96-21.79,25.15-32.85
		c16.1-21.76,29.47-45.32,42.48-69.07c10.25-18.72,20.37-37.51,29.69-56.69c7.22-14.87,16.25-28.8,22.41-44.19
		c1.72-4.3,5.78-7.33,7.2-11.52c1.85-5.46,5.49-8.93,9.9-11.81c4.67-3.04,9.59-0.43,10.22,5.39c0.41,3.78,0.67,7.74,0,11.44
		c-2.79,15.36-5.98,30.62-10.48,45.62c-4.19,13.98-8.13,28.06-13.57,41.58c-8.25,20.51-16.94,40.85-26.35,60.88
		c-6.97,14.84-14.51,29.37-22.35,43.77c-9.3,17.08-21.67,32.12-32.11,48.45c-4.41,6.91-8.29,14.07-11.02,21.81
		c-0.89,2.54-1.76,5.48,0.38,7.45c2.18,2.01,4.56,0.18,6.77-1.06c17.65-9.93,31.91-23.83,44.58-39.28
		c16.45-20.06,28.46-42.91,39.58-66.24c4.11-8.61,7.89-17.43,13.8-25.05c3.58-4.61,7.72-4.54,10.64,0.41
		c1.86,3.16,2.96,6.77,4.4,10.18c0,3.33,0,6.65,0,9.98c-1.11,4.89-2.14,9.8-3.35,14.66c-3.02,12.16-7.77,23.72-12.85,35.12
		c-6.99,15.71-15.35,30.7-24.58,45.22c-11.42,17.94-26.46,32.48-42.69,45.89c-19.7,16.27-41.55,29.08-64.6,40.02
		c-25.54,12.12-52.03,21.56-79.01,29.81c-24.77,7.58-49.75,14.36-74.76,21.09c-20.43,5.5-40.8,11.33-60.92,17.89
		c-24.16,7.87-47.96,16.75-70.54,28.65c-23.12,12.19-44.4,26.8-62.35,45.93c-13.15,14.02-23.85,29.75-32.29,47.02
		c-0.5,1.03-1.04,2.06-1.65,3.03c-0.22,0.35-0.74,0.51-1.38,0.92c-8.24-15.97-16.24-31.86-23.6-48.1
		c-6.66-14.7-12.86-29.58-18.45-44.7c-5.56-15.05-9.91-30.48-13.94-46.04c-6.98-26.88-9.29-54.17-7.54-81.69
		c1.06-16.69,4.53-33.13,10.05-49.13c5.19-15.05,11.43-29.57,18.57-43.75c8.86-17.58,18.87-34.52,28.54-51.64
		c11.63-20.61,22.79-41.42,32.07-63.23c5.59-13.14,10.87-26.4,14.79-40.1c6.51-22.74,11.93-45.73,15.74-69.13
		c2.47-15.21,4.35-30.38,4.86-45.79c0.19-5.79,0.43-11.8,2.81-17.43c2.54-6,8.02-8.21,13.64-4.61c12.49,7.99,21.05,19.32,25.16,33.4
		c6,20.54,4.4,41.67,3.38,62.7c-0.47,9.58-1.53,19.07-3.89,28.37c-2.71,10.67-5.46,21.33-8.37,31.95
		c-5.26,19.21-8.54,38.8-12.01,58.39c-4.39,24.76-15.31,47.04-28.69,68.19c-5.28,8.34-11.56,15.88-17.65,23.59
		c-1.52,1.93-1.99,3.91-1.22,6.01c0.92,2.5,3.3,2.23,5.5,2.35c11.69,0.68,19.7-5.85,27.4-13.44c11.84-11.66,19.12-26.23,26.82-40.58
		c3.02-5.63,6.22-11.21,10.7-15.86c5-5.2,8.63-5.01,12.87,0.78c5.77,7.88,9.43,16.79,12.22,26.09c7.74,25.8,7.8,52.18,6.24,78.74
		c-0.85,14.53-1.62,29.06-3.33,43.51c-0.49,4.1-1.05,8.17-1.07,12.31c-0.01,2.04,0.4,3.94,1.21,5.75c2.43,5.47,5.46,5.96,8.89,1.08
		c8.13-11.57,12.87-24.58,16.12-38.27c4.42-18.63,4.01-38.01,8.96-56.54c1.27-4.75,2.98-9.39,6.78-12.85
		c3.19-2.92,5.64-2.38,7.08,1.66c1.23,3.43,2.12,6.9,2.04,10.65c-0.1,4.94,0.81,9.95,0.76,14.79c-0.19,18.31-2.15,36.43-7.79,54.06
		c-4.55,14.23-9.87,28.13-15.79,41.83c-0.7,1.62-1.14,3.49-1.14,5.24c0,2.45-1.19,5.27,2.21,6.94c3.07,1.5,5.41,0.07,7.75-1.26
		c7.42-4.22,11.13-11.59,14.93-18.68c8.15-15.2,14.23-31.28,18.37-47.99c3-12.12,5.49-24.38,6.75-36.85
		c0.35-3.42,1.34-6.78,2.03-10.16c2.38-1.07,4.42-2.37,3.51-5.52c-0.36-1.23-1.27-2.67,0.7-3.24c1.44-0.42,2.67-0.28,3.75,1.38
		c1.44,2.21,2.29,4.13,1.28,6.81C299.2,366.86,298.49,369.14,301.56,369.76z"/>
	<path class="st1" d="M301.56,369.76c-3.07-0.62-2.36-2.9-1.7-4.65c1.01-2.68,0.16-4.6-1.28-6.81c-1.08-1.66-2.31-1.79-3.75-1.38
		c-1.96,0.57-1.05,2-0.7,3.24c0.91,3.15-1.13,4.45-3.51,5.52c0.96-4.24,1.73-8.55,2.98-12.7c0.58-1.93,1.49-4.03,3.7-4.95
		c1.02,0.02,3.63,0.21,5.09,2.08c1.1,1.4,1.04,3.11,0.99,4.17C303.09,360.28,302.02,367.04,301.56,369.76z"/>
</g>
</svg>
